# xmcd
# Copyright (C) 1995-1998 Ti Kan
#
# Track frame offsets:
#       150
#       15424
#       29358
#       42683
#       62279
#       80696
#       95496
#       108099
#       123709
#       140642
#       159165
#       176972
#       192142
#
# Disc length: 2758 seconds
#
# Revision: 0
# Processed by: cddbd v1.5.1PL0 Copyright (c) Steve Scherf et al.
# Submitted via: CD-Transfer v1.0
#
DISCID=aa0ac40d
DTITLE=Plankton - Hallo Erde
DYEAR=2005
DGENRE=
TTITLE0=Feischter Uf
TTITLE1=Déjà Vu
TTITLE2=Die Wo Nid Chönd Tschutte
TTITLE3=Glaub Doch Was Du Willsch
TTITLE4=Im Schatte Vo De Ziit
TTITLE5=Du Und Ich
TTITLE6=Als Würsch Du Mich Verschtah
TTITLE7=Blinde Passagier
TTITLE8=Vorhang
TTITLE9=Bern
TTITLE10=Augeblick
TTITLE11=Was Du Wüsse Muesch
TTITLE12=Es Git Täg
EXTD=
EXTT0=
EXTT1=
EXTT2=
EXTT3=
EXTT4=
EXTT5=
EXTT6=
EXTT7=
EXTT8=
EXTT9=
EXTT10=
EXTT11=
EXTT12=
PLAYORDER=
